# xmcd
#
# Track frame offsets: 
#        150
#        12998
#        25208
#        35939
#        49816
#        66242
#        79586
#        91519
#        106161
#        119509
#        133593
#        147611
#        162777
#        175674
#        187566
#        200254
#
# Disc length: 2842 seconds
#
# Revision: 0
# Processed by: cddbd v1.5.1PL2 Copyright (c) Steve Scherf et al.
# Submitted via: ExactAudioCopy v0.95b3
#
DISCID=ce0b1810
DTITLE=The Inkspots - Whispering Grass
DYEAR=1900
DGENRE=Vocal
TTITLE0=I don't Want To Set the World on Fire
TTITLE1=Whispering Grass
TTITLE2=It's a Sin to Tell a Lie
TTITLE3=When the Swallows Come Back to Capistrano
TTITLE4=If I Didn't Care
TTITLE5=I'll Get By As Long As I Have You
TTITLE6=The Gypsy
TTITLE7=Maybe
TTITLE8=Puttin' and Takin'
TTITLE9=To Each His Own
TTITLE10=We Three (My Echo, My Shadow and Me)
TTITLE11=Ev'ry Night About This Time
TTITLE12=With Plenty Of Money And You
TTITLE13=Swing High, Swing Low
TTITLE14=Swingin' On The Strings
TTITLE15=Bless You
EXTD=
EXTT0=
EXTT1=
EXTT2=
EXTT3=
EXTT4=
EXTT5=
EXTT6=
EXTT7=
EXTT8=
EXTT9=
EXTT10=
EXTT11=
EXTT12=
EXTT13=
EXTT14=
EXTT15=
PLAYORDER=
